<?xml version="1.0" standalone="no"?>
<!DOCTYPE svg PUBLIC "-//W3C//DTD SVG 20010904//EN"
 "http://www.w3.org/TR/2001/REC-SVG-20010904/DTD/svg10.dtd">
<svg version="1.0" xmlns="http://www.w3.org/2000/svg"
 width="5120.000000pt" height="5120.000000pt" viewBox="0 0 5120.000000 5120.000000"
 preserveAspectRatio="xMidYMid meet">

<g transform="translate(0.000000,5120.000000) scale(0.100000,-0.100000)"
fill="#000000" stroke="none">
<path d="M19525 34064 c-125 -19 -245 -50 -348 -90 -499 -191 -832 -564 -944
-1054 -16 -70 -17 -438 -20 -5650 -3 -5047 -2 -5585 12 -5684 91 -624 632
-1119 1325 -1212 81 -10 256 -14 763 -14 l657 0 0 -147 c1 -850 333 -1638 936
-2223 512 -496 1154 -792 1867 -860 178 -18 552 -8 722 18 563 87 1054 301
1490 648 140 112 366 338 474 474 310 390 520 837 617 1314 37 185 54 342 61
569 l6 207 3545 0 c3160 0 3556 2 3651 16 202 29 373 83 540 170 58 30 108 54
113 54 5 0 32 -17 61 -39 104 -77 221 -131 372 -173 77 -21 103 -22 614 -28
l535 -5 -3 -105 c-6 -242 36 -580 104 -838 144 -546 457 -1073 865 -1453 475
-444 1028 -711 1675 -811 168 -25 533 -35 712 -19 608 56 1178 284 1653 661
132 104 383 355 482 480 353 448 563 931 648 1495 14 95 23 214 27 367 l6 227
531 3 531 4 97 26 c436 119 756 478 870 976 l22 97 3 1834 3 1835 -56 170 -57
171 -385 560 c-1046 1521 -1876 2705 -1902 2712 -8 3 -42 41 -75 86 -33 45
-132 177 -219 292 -724 952 -1231 1505 -1502 1635 l-62 30 -2436 0 -2435 0 -4
1028 c-3 915 -5 1035 -20 1102 -129 575 -582 998 -1214 1132 l-108 23 -7355 2
c-6252 1 -7368 -1 -7445 -13z m14737 -1204 c69 -21 143 -68 180 -115 l23 -30
3 -5480 c2 -4089 -1 -5487 -9 -5508 -18 -42 -103 -113 -167 -139 l-57 -23
-3697 -3 -3696 -2 -78 127 c-258 423 -477 680 -792 931 -860 684 -2031 859
-3047 456 -672 -267 -1221 -751 -1577 -1389 l-66 -120 -819 0 c-817 0 -818 0
-871 22 -70 28 -136 79 -161 124 l-21 37 0 5470 c0 3356 4 5480 9 5495 12 30
76 94 116 115 17 8 55 23 85 33 52 17 390 18 7316 18 7204 1 7262 1 7326 -19z
m6248 -3280 c42 -42 172 -225 368 -520 l203 -305 -658 -6 c-556 -4 -675 -8
-768 -23 -487 -77 -885 -272 -1224 -601 -207 -201 -322 -359 -446 -610 -116
-234 -179 -444 -216 -715 -21 -151 -18 -832 4 -981 37 -252 100 -456 207 -674
120 -244 263 -440 455 -623 349 -333 768 -534 1249 -597 102 -13 365 -15 2017
-15 l1899 0 0 -1152 c0 -634 -3 -1163 -6 -1176 l-6 -22 -581 2 -580 3 -60 110
c-291 537 -749 985 -1297 1268 -743 385 -1601 450 -2396 184 -326 -110 -607
-260 -896 -479 -143 -107 -419 -377 -530 -518 -128 -162 -271 -382 -339 -523
l-23 -47 -580 2 -581 3 -6 30 c-12 54 -10 7926 2 7968 l10 37 2379 0 c2370 0
2380 0 2400 -20z m1513 -2350 c456 -654 1445 -2093 1453 -2115 5 -13 -195 -15
-1757 -15 -1099 0 -1800 4 -1859 10 -131 14 -227 42 -345 100 -304 150 -513
444 -555 781 -8 64 -10 196 -7 400 4 265 7 314 25 384 48 188 135 340 271 476
157 157 324 244 545 284 55 10 289 13 1040 12 l970 -2 219 -315z m-17803
-5151 c667 -62 1234 -453 1530 -1054 462 -940 59 -2078 -895 -2531 -339 -160
-755 -218 -1120 -154 -512 91 -969 390 -1256 824 -143 217 -234 446 -286 721
-24 127 -28 427 -9 568 140 1002 1038 1719 2036 1626z m15605 1 c376 -36 723
-176 1014 -410 342 -275 574 -658 668 -1100 25 -115 27 -144 28 -365 0 -210
-3 -254 -22 -351 -103 -507 -385 -935 -802 -1215 -322 -217 -666 -322 -1056
-321 -305 0 -548 55 -820 187 -867 420 -1277 1419 -955 2329 286 807 1096
1326 1945 1246z"/>
<path d="M21640 30674 c-221 -47 -408 -236 -455 -459 -28 -136 -12 -265 51
-395 35 -73 71 -109 1298 -1338 l1261 -1262 -1261 -1263 c-1381 -1383 -1302
-1296 -1344 -1463 -52 -202 5 -409 154 -559 80 -81 135 -116 235 -151 147 -51
308 -40 459 32 76 36 90 49 1588 1548 1476 1475 1513 1513 1548 1586 91 189
84 401 -20 576 -28 48 -367 392 -1537 1561 -1466 1464 -1504 1502 -1577 1537
-129 63 -264 80 -400 50z"/>
<path d="M25375 30676 c-182 -42 -334 -165 -411 -331 -43 -94 -57 -173 -52
-292 5 -108 26 -179 80 -272 24 -41 359 -383 1283 -1309 l1250 -1252 -1257
-1258 -1256 -1257 -40 -85 c-22 -47 -46 -110 -52 -141 -18 -82 -9 -250 18
-323 54 -149 160 -269 295 -336 186 -91 358 -91 547 1 l85 41 1487 1487 c1082
1082 1497 1503 1526 1549 60 94 83 169 89 292 6 124 -8 196 -63 310 -36 73
-70 109 -1518 1558 -975 977 -1503 1498 -1546 1528 -129 88 -316 124 -465 90z"/>
<path d="M29110 30674 c-221 -47 -408 -236 -455 -459 -28 -136 -12 -265 51
-395 35 -73 70 -109 1298 -1337 l1261 -1263 -1261 -1262 c-1228 -1229 -1263
-1265 -1298 -1338 -117 -242 -74 -503 114 -691 186 -187 444 -229 688 -113 76
36 90 49 1588 1548 1476 1475 1513 1513 1548 1586 91 189 84 401 -20 576 -28
48 -367 392 -1537 1561 -1466 1464 -1504 1502 -1577 1537 -129 63 -264 80
-400 50z"/>
<path d="M23901 20764 c-150 -40 -295 -157 -364 -295 -162 -321 -7 -704 331
-821 96 -33 277 -33 374 0 173 60 315 208 371 387 32 105 30 244 -6 348 -66
191 -216 333 -403 382 -73 19 -231 19 -303 -1z"/>
<path d="M39495 20761 c-365 -105 -533 -531 -338 -860 76 -127 212 -227 363
-266 87 -23 240 -16 327 15 170 60 308 200 364 372 31 95 34 263 5 348 -66
197 -221 345 -412 395 -78 20 -232 19 -309 -4z"/>
<path d="M10253 30679 c-319 -53 -538 -370 -483 -696 38 -230 232 -429 465
-478 105 -22 6714 -22 6819 0 204 43 373 196 442 400 34 100 38 245 10 340
-58 197 -199 345 -391 412 l-80 28 -3365 1 c-1855 1 -3388 -2 -3417 -7z"/>
<path d="M6922 27579 c-281 -36 -497 -266 -518 -550 -21 -289 177 -559 458
-624 60 -13 591 -15 5102 -15 3595 0 5050 3 5088 11 29 6 90 28 135 50 241
115 376 377 329 639 -40 225 -200 404 -425 474 l-66 21 -5020 1 c-2761 1
-5048 -2 -5083 -7z"/>
<path d="M10210 24464 c-197 -53 -362 -207 -421 -393 -87 -275 36 -583 286
-713 143 -74 -186 -68 3567 -68 2987 0 3381 2 3433 15 437 112 598 654 292
982 -71 76 -139 123 -235 161 l-67 27 -3400 2 c-2966 2 -3407 0 -3455 -13z"/>
</g>
</svg>
